<svg width="122" height="32" viewBox="0 0 122 32" fill="none" xmlns="http://www.w3.org/2000/svg">
<mask id="path-1-outside-1_1_12" maskUnits="userSpaceOnUse" x="33" y="4" width="89" height="28" fill="black">
<rect fill="white" x="33" y="4" width="89" height="28"/>
<path d="M43.104 30.0868C41.4952 30.0868 39.9983 29.907 38.5993 29.3357C37.2119 28.7645 36.0985 27.8843 35.2591 26.6951C34.4197 25.5059 34 23.9729 34 22.0958V21.9035H40.2781V22.0958C40.2781 22.772 40.3947 23.3433 40.6278 23.8096C40.861 24.276 41.1874 24.6316 41.6071 24.8764C42.0385 25.1212 42.5398 25.2436 43.1111 25.2436C43.7173 25.2436 44.2303 25.1154 44.65 24.8589C45.0697 24.6024 45.3845 24.2177 45.5943 23.7047C45.8158 23.1917 45.9266 22.5622 45.9266 21.816V5H52.2081V21.816C52.2081 23.4949 51.7675 24.9638 51.033 26.2229C50.2985 27.4821 49.2551 28.4614 47.9027 29.1609C46.5503 29.8487 44.9461 30.0868 43.104 30.0868Z"/>
<path d="M63.1443 30.0868C61.0924 30.0868 59.297 29.7904 57.828 28.951C56.359 28.1 55.2282 26.9224 54.4354 25.4185C53.6543 23.9029 53.2637 22.1425 53.2637 20.1372C53.2637 18.1203 53.6543 16.3599 54.4354 14.8559C55.2282 13.3403 56.359 12.1628 57.828 11.3234C59.297 10.4724 61.0811 9.85549 63.1329 9.85549C65.1848 9.85549 66.9216 10.4724 68.3906 11.3234C69.8712 12.1628 71.0021 13.3403 71.7832 14.8559C72.576 16.3599 72.9723 18.1203 72.9723 20.1372C72.9723 22.1425 72.576 23.9029 71.7832 25.4185C71.0021 26.9224 69.8712 28.1 68.3906 28.951C66.9216 29.7904 65.1962 30.0868 63.1443 30.0868ZM63.1443 25.471C63.9021 25.471 64.5375 25.2495 65.0504 24.8064C65.5634 24.3634 65.954 23.7397 66.2221 22.9353C66.5019 22.1192 66.6418 21.1748 66.6418 20.1023C66.6418 19.018 66.5019 18.0795 66.2221 17.2867C65.954 16.494 65.5634 15.8819 65.0504 15.4505C64.5375 15.0075 63.9021 14.786 63.1443 14.786C62.3865 14.786 61.7394 15.0075 61.2031 15.4505C60.6668 15.8819 60.2646 16.494 59.9965 17.2867C59.7283 18.0795 59.5943 19.018 59.5943 20.1023C59.5943 21.1748 59.7283 22.1192 59.9965 22.9353C60.2646 23.7397 60.6668 24.3634 61.2031 24.8064C61.7394 25.2495 62.3865 25.471 63.1443 25.471Z"/>
<path d="M74.1188 30.0868V9.85561H80.3805V13.5121C80.7303 12.2063 81.2888 11.4043 82.0932 10.7864C82.9093 10.1568 83.9217 9.85549 84.9827 9.85549C85.2741 9.85549 85.4975 9.85954 85.8006 9.89452C86.1154 9.92949 86.3809 10.0431 86.5684 10.1369V16.1545C86.2872 15.967 85.7845 15.8128 85.4434 15.7795C85.1858 15.7544 84.5976 15.6857 84.2245 15.6857C83.49 15.6857 82.8502 15.8281 82.2557 16.1545C81.6727 16.481 81.1722 16.8976 80.8341 17.4806C80.5077 18.0635 80.3805 18.854 80.3805 19.6235V30.0868H74.1188Z"/>
<path d="M109.219 30.0825C107.971 30.0825 106.928 29.9785 105.948 29.5587C104.981 29.1274 104.223 28.4862 103.675 27.6351C103.127 26.784 102.853 25.7115 102.853 24.4174C102.853 23.3331 103.04 22.4179 103.413 21.6718C103.797 20.9257 104.322 20.3194 104.986 19.8531C105.663 19.3867 106.438 19.0312 107.312 18.7863C108.187 18.5298 109.119 18.3666 110.11 18.2967C111.218 18.1918 112.11 18.0868 112.786 17.9819C113.462 17.877 113.952 17.7138 114.255 17.4922C114.57 17.2707 114.727 16.9618 114.727 16.5654V16.478C114.727 15.8367 114.506 15.3354 114.063 14.974C113.62 14.6126 113.013 14.4319 112.244 14.4319C111.416 14.4319 110.752 14.6126 110.25 14.974C109.761 15.3354 109.504 15.5323 109.364 16.1502H104.113C104.113 15.1189 104.255 13.9 104.882 13.0679C105.707 11.9721 106.566 11.3832 107.802 10.8469C109.049 10.3106 110.695 9.85127 112.456 9.85127C114.276 9.85127 115.129 10.3096 115.741 10.4797C116.791 10.7711 117.706 11.1967 118.487 11.7563C119.268 12.3159 119.874 12.9979 120.306 13.8023C120.737 14.6068 120.953 15.522 120.953 16.5479V30.0825H115.094V27.093C114.733 27.7692 114.144 28.3346 113.608 28.7893C113.072 29.244 112.442 29.5937 111.719 29.8386C111.008 30.0717 110.128 30.0825 109.219 30.0825ZM111.195 26.0962C111.859 26.0962 112.46 25.9621 112.996 25.694C113.544 25.4142 113.975 25.0353 114.29 24.5573C114.616 24.0793 114.78 23.5197 114.78 22.8785V21.0422C114.605 21.1355 114.389 21.223 114.133 21.3046C113.888 21.3745 113.614 21.4445 113.311 21.5144C113.007 21.5844 112.699 21.6427 112.384 21.6893C112.081 21.7359 111.789 21.7826 111.509 21.8292C110.915 21.9108 110.408 22.0565 109.988 22.2664C109.58 22.4646 109.271 22.7152 109.061 23.0184C108.851 23.3215 108.746 23.6887 108.746 24.1201C108.746 24.7613 108.974 25.2509 109.428 25.589C109.883 25.9271 110.472 26.0962 111.195 26.0962Z"/>
<path d="M89.1188 30.3682V10.137H95.3805V13.7935C95.7303 12.4877 96.2888 11.6857 97.0932 11.0678C97.9093 10.4382 98.9217 10.1369 99.9827 10.1369C100.274 10.1369 100.497 10.1409 100.801 10.1759C101.115 10.2109 101.381 10.3245 101.568 10.4183V16.4359C101.287 16.2484 100.784 16.0942 100.443 16.0609C100.186 16.0357 99.5976 15.9671 99.2245 15.9671C98.4901 15.9671 97.8502 16.1095 97.2557 16.4359C96.6727 16.7623 96.1722 17.179 95.8341 17.7619C95.5077 18.3449 95.3805 19.1354 95.3805 19.9049V30.3682H89.1188Z"/>
</mask>
<path d="M43.104 30.0868C41.4952 30.0868 39.9983 29.907 38.5993 29.3357C37.2119 28.7645 36.0985 27.8843 35.2591 26.6951C34.4197 25.5059 34 23.9729 34 22.0958V21.9035H40.2781V22.0958C40.2781 22.772 40.3947 23.3433 40.6278 23.8096C40.861 24.276 41.1874 24.6316 41.6071 24.8764C42.0385 25.1212 42.5398 25.2436 43.1111 25.2436C43.7173 25.2436 44.2303 25.1154 44.65 24.8589C45.0697 24.6024 45.3845 24.2177 45.5943 23.7047C45.8158 23.1917 45.9266 22.5622 45.9266 21.816V5H52.2081V21.816C52.2081 23.4949 51.7675 24.9638 51.033 26.2229C50.2985 27.4821 49.2551 28.4614 47.9027 29.1609C46.5503 29.8487 44.9461 30.0868 43.104 30.0868Z" fill="black"/>
<path d="M63.1443 30.0868C61.0924 30.0868 59.297 29.7904 57.828 28.951C56.359 28.1 55.2282 26.9224 54.4354 25.4185C53.6543 23.9029 53.2637 22.1425 53.2637 20.1372C53.2637 18.1203 53.6543 16.3599 54.4354 14.8559C55.2282 13.3403 56.359 12.1628 57.828 11.3234C59.297 10.4724 61.0811 9.85549 63.1329 9.85549C65.1848 9.85549 66.9216 10.4724 68.3906 11.3234C69.8712 12.1628 71.0021 13.3403 71.7832 14.8559C72.576 16.3599 72.9723 18.1203 72.9723 20.1372C72.9723 22.1425 72.576 23.9029 71.7832 25.4185C71.0021 26.9224 69.8712 28.1 68.3906 28.951C66.9216 29.7904 65.1962 30.0868 63.1443 30.0868ZM63.1443 25.471C63.9021 25.471 64.5375 25.2495 65.0504 24.8064C65.5634 24.3634 65.954 23.7397 66.2221 22.9353C66.5019 22.1192 66.6418 21.1748 66.6418 20.1023C66.6418 19.018 66.5019 18.0795 66.2221 17.2867C65.954 16.494 65.5634 15.8819 65.0504 15.4505C64.5375 15.0075 63.9021 14.786 63.1443 14.786C62.3865 14.786 61.7394 15.0075 61.2031 15.4505C60.6668 15.8819 60.2646 16.494 59.9965 17.2867C59.7283 18.0795 59.5943 19.018 59.5943 20.1023C59.5943 21.1748 59.7283 22.1192 59.9965 22.9353C60.2646 23.7397 60.6668 24.3634 61.2031 24.8064C61.7394 25.2495 62.3865 25.471 63.1443 25.471Z" fill="black"/>
<path d="M74.1188 30.0868V9.85561H80.3805V13.5121C80.7303 12.2063 81.2888 11.4043 82.0932 10.7864C82.9093 10.1568 83.9217 9.85549 84.9827 9.85549C85.2741 9.85549 85.4975 9.85954 85.8006 9.89452C86.1154 9.92949 86.3809 10.0431 86.5684 10.1369V16.1545C86.2872 15.967 85.7845 15.8128 85.4434 15.7795C85.1858 15.7544 84.5976 15.6857 84.2245 15.6857C83.49 15.6857 82.8502 15.8281 82.2557 16.1545C81.6727 16.481 81.1722 16.8976 80.8341 17.4806C80.5077 18.0635 80.3805 18.854 80.3805 19.6235V30.0868H74.1188Z" fill="black"/>
<path d="M109.219 30.0825C107.971 30.0825 106.928 29.9785 105.948 29.5587C104.981 29.1274 104.223 28.4862 103.675 27.6351C103.127 26.784 102.853 25.7115 102.853 24.4174C102.853 23.3331 103.04 22.4179 103.413 21.6718C103.797 20.9257 104.322 20.3194 104.986 19.8531C105.663 19.3867 106.438 19.0312 107.312 18.7863C108.187 18.5298 109.119 18.3666 110.11 18.2967C111.218 18.1918 112.11 18.0868 112.786 17.9819C113.462 17.877 113.952 17.7138 114.255 17.4922C114.57 17.2707 114.727 16.9618 114.727 16.5654V16.478C114.727 15.8367 114.506 15.3354 114.063 14.974C113.62 14.6126 113.013 14.4319 112.244 14.4319C111.416 14.4319 110.752 14.6126 110.25 14.974C109.761 15.3354 109.504 15.5323 109.364 16.1502H104.113C104.113 15.1189 104.255 13.9 104.882 13.0679C105.707 11.9721 106.566 11.3832 107.802 10.8469C109.049 10.3106 110.695 9.85127 112.456 9.85127C114.276 9.85127 115.129 10.3096 115.741 10.4797C116.791 10.7711 117.706 11.1967 118.487 11.7563C119.268 12.3159 119.874 12.9979 120.306 13.8023C120.737 14.6068 120.953 15.522 120.953 16.5479V30.0825H115.094V27.093C114.733 27.7692 114.144 28.3346 113.608 28.7893C113.072 29.244 112.442 29.5937 111.719 29.8386C111.008 30.0717 110.128 30.0825 109.219 30.0825ZM111.195 26.0962C111.859 26.0962 112.46 25.9621 112.996 25.694C113.544 25.4142 113.975 25.0353 114.29 24.5573C114.616 24.0793 114.78 23.5197 114.78 22.8785V21.0422C114.605 21.1355 114.389 21.223 114.133 21.3046C113.888 21.3745 113.614 21.4445 113.311 21.5144C113.007 21.5844 112.699 21.6427 112.384 21.6893C112.081 21.7359 111.789 21.7826 111.509 21.8292C110.915 21.9108 110.408 22.0565 109.988 22.2664C109.58 22.4646 109.271 22.7152 109.061 23.0184C108.851 23.3215 108.746 23.6887 108.746 24.1201C108.746 24.7613 108.974 25.2509 109.428 25.589C109.883 25.9271 110.472 26.0962 111.195 26.0962Z" fill="black"/>
<path d="M89.1188 30.3682V10.137H95.3805V13.7935C95.7303 12.4877 96.2888 11.6857 97.0932 11.0678C97.9093 10.4382 98.9217 10.1369 99.9827 10.1369C100.274 10.1369 100.497 10.1409 100.801 10.1759C101.115 10.2109 101.381 10.3245 101.568 10.4183V16.4359C101.287 16.2484 100.784 16.0942 100.443 16.0609C100.186 16.0357 99.5976 15.9671 99.2245 15.9671C98.4901 15.9671 97.8502 16.1095 97.2557 16.4359C96.6727 16.7623 96.1722 17.179 95.8341 17.7619C95.5077 18.3449 95.3805 19.1354 95.3805 19.9049V30.3682H89.1188Z" fill="black"/>
<path d="M43.104 30.0868C41.4952 30.0868 39.9983 29.907 38.5993 29.3357C37.2119 28.7645 36.0985 27.8843 35.2591 26.6951C34.4197 25.5059 34 23.9729 34 22.0958V21.9035H40.2781V22.0958C40.2781 22.772 40.3947 23.3433 40.6278 23.8096C40.861 24.276 41.1874 24.6316 41.6071 24.8764C42.0385 25.1212 42.5398 25.2436 43.1111 25.2436C43.7173 25.2436 44.2303 25.1154 44.65 24.8589C45.0697 24.6024 45.3845 24.2177 45.5943 23.7047C45.8158 23.1917 45.9266 22.5622 45.9266 21.816V5H52.2081V21.816C52.2081 23.4949 51.7675 24.9638 51.033 26.2229C50.2985 27.4821 49.2551 28.4614 47.9027 29.1609C46.5503 29.8487 44.9461 30.0868 43.104 30.0868Z" stroke="black" stroke-width="2" mask="url(#path-1-outside-1_1_12)"/>
<path d="M63.1443 30.0868C61.0924 30.0868 59.297 29.7904 57.828 28.951C56.359 28.1 55.2282 26.9224 54.4354 25.4185C53.6543 23.9029 53.2637 22.1425 53.2637 20.1372C53.2637 18.1203 53.6543 16.3599 54.4354 14.8559C55.2282 13.3403 56.359 12.1628 57.828 11.3234C59.297 10.4724 61.0811 9.85549 63.1329 9.85549C65.1848 9.85549 66.9216 10.4724 68.3906 11.3234C69.8712 12.1628 71.0021 13.3403 71.7832 14.8559C72.576 16.3599 72.9723 18.1203 72.9723 20.1372C72.9723 22.1425 72.576 23.9029 71.7832 25.4185C71.0021 26.9224 69.8712 28.1 68.3906 28.951C66.9216 29.7904 65.1962 30.0868 63.1443 30.0868ZM63.1443 25.471C63.9021 25.471 64.5375 25.2495 65.0504 24.8064C65.5634 24.3634 65.954 23.7397 66.2221 22.9353C66.5019 22.1192 66.6418 21.1748 66.6418 20.1023C66.6418 19.018 66.5019 18.0795 66.2221 17.2867C65.954 16.494 65.5634 15.8819 65.0504 15.4505C64.5375 15.0075 63.9021 14.786 63.1443 14.786C62.3865 14.786 61.7394 15.0075 61.2031 15.4505C60.6668 15.8819 60.2646 16.494 59.9965 17.2867C59.7283 18.0795 59.5943 19.018 59.5943 20.1023C59.5943 21.1748 59.7283 22.1192 59.9965 22.9353C60.2646 23.7397 60.6668 24.3634 61.2031 24.8064C61.7394 25.2495 62.3865 25.471 63.1443 25.471Z" stroke="black" stroke-width="2" mask="url(#path-1-outside-1_1_12)"/>
<path d="M74.1188 30.0868V9.85561H80.3805V13.5121C80.7303 12.2063 81.2888 11.4043 82.0932 10.7864C82.9093 10.1568 83.9217 9.85549 84.9827 9.85549C85.2741 9.85549 85.4975 9.85954 85.8006 9.89452C86.1154 9.92949 86.3809 10.0431 86.5684 10.1369V16.1545C86.2872 15.967 85.7845 15.8128 85.4434 15.7795C85.1858 15.7544 84.5976 15.6857 84.2245 15.6857C83.49 15.6857 82.8502 15.8281 82.2557 16.1545C81.6727 16.481 81.1722 16.8976 80.8341 17.4806C80.5077 18.0635 80.3805 18.854 80.3805 19.6235V30.0868H74.1188Z" stroke="black" stroke-width="2" mask="url(#path-1-outside-1_1_12)"/>
<path d="M109.219 30.0825C107.971 30.0825 106.928 29.9785 105.948 29.5587C104.981 29.1274 104.223 28.4862 103.675 27.6351C103.127 26.784 102.853 25.7115 102.853 24.4174C102.853 23.3331 103.04 22.4179 103.413 21.6718C103.797 20.9257 104.322 20.3194 104.986 19.8531C105.663 19.3867 106.438 19.0312 107.312 18.7863C108.187 18.5298 109.119 18.3666 110.11 18.2967C111.218 18.1918 112.11 18.0868 112.786 17.9819C113.462 17.877 113.952 17.7138 114.255 17.4922C114.57 17.2707 114.727 16.9618 114.727 16.5654V16.478C114.727 15.8367 114.506 15.3354 114.063 14.974C113.62 14.6126 113.013 14.4319 112.244 14.4319C111.416 14.4319 110.752 14.6126 110.25 14.974C109.761 15.3354 109.504 15.5323 109.364 16.1502H104.113C104.113 15.1189 104.255 13.9 104.882 13.0679C105.707 11.9721 106.566 11.3832 107.802 10.8469C109.049 10.3106 110.695 9.85127 112.456 9.85127C114.276 9.85127 115.129 10.3096 115.741 10.4797C116.791 10.7711 117.706 11.1967 118.487 11.7563C119.268 12.3159 119.874 12.9979 120.306 13.8023C120.737 14.6068 120.953 15.522 120.953 16.5479V30.0825H115.094V27.093C114.733 27.7692 114.144 28.3346 113.608 28.7893C113.072 29.244 112.442 29.5937 111.719 29.8386C111.008 30.0717 110.128 30.0825 109.219 30.0825ZM111.195 26.0962C111.859 26.0962 112.46 25.9621 112.996 25.694C113.544 25.4142 113.975 25.0353 114.29 24.5573C114.616 24.0793 114.78 23.5197 114.78 22.8785V21.0422C114.605 21.1355 114.389 21.223 114.133 21.3046C113.888 21.3745 113.614 21.4445 113.311 21.5144C113.007 21.5844 112.699 21.6427 112.384 21.6893C112.081 21.7359 111.789 21.7826 111.509 21.8292C110.915 21.9108 110.408 22.0565 109.988 22.2664C109.58 22.4646 109.271 22.7152 109.061 23.0184C108.851 23.3215 108.746 23.6887 108.746 24.1201C108.746 24.7613 108.974 25.2509 109.428 25.589C109.883 25.9271 110.472 26.0962 111.195 26.0962Z" stroke="black" stroke-width="2" mask="url(#path-1-outside-1_1_12)"/>
<path d="M89.1188 30.3682V10.137H95.3805V13.7935C95.7303 12.4877 96.2888 11.6857 97.0932 11.0678C97.9093 10.4382 98.9217 10.1369 99.9827 10.1369C100.274 10.1369 100.497 10.1409 100.801 10.1759C101.115 10.2109 101.381 10.3245 101.568 10.4183V16.4359C101.287 16.2484 100.784 16.0942 100.443 16.0609C100.186 16.0357 99.5976 15.9671 99.2245 15.9671C98.4901 15.9671 97.8502 16.1095 97.2557 16.4359C96.6727 16.7623 96.1722 17.179 95.8341 17.7619C95.5077 18.3449 95.3805 19.1354 95.3805 19.9049V30.3682H89.1188Z" stroke="black" stroke-width="2" mask="url(#path-1-outside-1_1_12)"/>
<path fill-rule="evenodd" clip-rule="evenodd" d="M6.7144 4.014C10.2975 1.20071 14.1586 0.441394 18.5945 1.38496C21.892 2.08636 24.2234 3.78503 25.7219 5.29665C26.471 6.05228 27.0174 6.76616 27.3798 7.29707C27.5613 7.56296 27.6976 7.78431 27.7909 7.94388C27.8376 8.0237 27.8736 8.08821 27.8992 8.13526C27.912 8.15879 27.9222 8.17797 27.9298 8.19254L27.9363 8.20492C29.2553 10.465 30 13.1183 30 15.9469C30 24.1143 23.7912 30.8199 15.4752 30.8199C10.2204 30.8199 5.83262 28.1439 3.31179 24.1171C3.29116 24.0872 3.27168 24.0562 3.25345 24.0241L3.25168 24.021L3.24898 24.0162L3.24698 24.0126C1.81559 21.6831 1.00475 18.9105 1.00475 15.9469C1.00475 15.9381 1.00475 15.9293 1.00477 15.9205C0.989272 15.3261 1.01081 14.718 1.08017 14.1038C1.32561 11.9305 1.80395 10.122 2.70335 8.48893C3.52718 6.99311 4.66581 5.71438 6.17061 4.45547C6.3481 4.30394 6.5294 4.15673 6.7144 4.014ZM5.63237 23.0671C5.64463 22.9103 5.66328 22.7081 5.6914 22.4685C5.76498 21.8417 5.9024 20.9678 6.15638 19.9886C6.67143 18.0027 7.63018 15.7217 9.37133 14.1264C10.6109 12.9906 11.6789 12.5299 12.6295 12.3714C13.6073 12.2084 14.5772 12.3437 15.6827 12.5954C15.956 12.6576 16.2414 12.7295 16.5378 12.8042C16.684 12.8411 16.8329 12.8786 16.9843 12.916C17.0131 12.9909 17.0443 13.0739 17.0773 13.1641C17.2457 13.6245 17.4569 14.2646 17.6304 14.9849C17.9955 16.5007 18.1178 18.0721 17.6597 19.134C17.1972 20.206 16.328 20.5416 14.9308 20.9209C14.8685 20.9378 14.8041 20.9551 14.738 20.9728C14.1356 21.1343 13.3921 21.3335 12.7525 21.6667C11.9747 22.0718 11.2637 22.712 10.9089 23.7701C10.5969 24.701 10.9454 25.653 11.2603 26.2896C11.5297 26.8343 11.8922 27.3781 12.2656 27.8731C9.49613 27.1156 7.18208 25.391 5.63237 23.0671ZM15.9791 28.2881C20.1156 28.1234 23.5956 25.9359 25.6098 22.6699C25.617 22.6133 25.625 22.5459 25.6332 22.4685C25.6634 22.1821 25.6961 21.7607 25.7021 21.2417C25.7142 20.1989 25.6187 18.7886 25.1979 17.2968C24.7508 15.7121 24.0071 14.4886 23.3744 13.6618C23.1647 13.3877 22.9686 13.1591 22.8019 12.9774C21.7606 13.3389 20.757 13.433 19.8085 13.3869C19.9024 13.6985 19.996 14.0371 20.082 14.3944C20.4671 15.9934 20.7794 18.2685 19.9751 20.1329C18.9927 22.4102 16.9615 22.9827 15.5914 23.3546C15.5412 23.3682 15.4919 23.3815 15.4437 23.3946C14.7708 23.5768 14.2988 23.7046 13.9174 23.9032C13.5843 24.0767 13.4092 24.2609 13.3068 24.5516C13.3122 24.5521 13.3012 24.728 13.5207 25.1716C13.751 25.6373 14.1254 26.1754 14.5577 26.7119C14.983 27.2397 15.4299 27.724 15.7739 28.0791C15.8479 28.1555 15.9168 28.2255 15.9791 28.2881ZM25.0785 11.7536C25.1751 11.8707 25.275 11.9959 25.3771 12.1293C26.0893 13.06 26.9179 14.4009 27.4771 16.1247C27.4779 16.0655 27.4783 16.0062 27.4783 15.9469C27.4783 14.076 27.0945 12.3079 26.398 10.7253C26.3055 10.8018 26.2139 10.8771 26.1296 10.9455C25.8184 11.1984 25.4613 11.4802 25.0785 11.7536ZM3.5266 15.8904C3.55459 9.04177 8.66904 3.59557 15.4752 3.59557C19.5158 3.59557 22.9757 5.51371 25.1283 8.50205C25.1031 8.52302 25.078 8.54395 25.0527 8.56498C24.9009 8.69144 24.7445 8.82177 24.5395 8.98833C23.868 9.5339 23.1634 10.0592 22.5411 10.3602C20.7493 11.2268 19.236 10.8589 17.2426 10.3743C16.9226 10.2965 16.5903 10.2157 16.2424 10.1365C15.0455 9.86407 13.6866 9.63865 12.2149 9.884C10.716 10.1339 9.21371 10.8506 7.66774 12.2671C5.64152 14.1236 4.52664 16.5894 3.90712 18.6671C3.70201 17.7994 3.55474 16.8571 3.5266 15.8904Z" fill="black" stroke="black" stroke-linejoin="round"/>
</svg>
