<svg width="32" height="32" viewBox="0 0 32 32" fill="none" xmlns="http://www.w3.org/2000/svg">
<path d="M16 0.5C20.1109 0.5 24.0531 2.13323 26.96 5.04004C29.8668 7.94685 31.5 11.8891 31.5 16C31.5 20.1109 29.8668 24.0531 26.96 26.96C24.0531 29.8668 20.1109 31.5 16 31.5C11.8891 31.5 7.94685 29.8668 5.04004 26.96C2.13323 24.0531 0.5 20.1109 0.5 16C0.5 11.8891 2.13323 7.94685 5.04004 5.04004C7.94685 2.13323 11.8891 0.5 16 0.5ZM19.4121 8.08594C18.6829 7.34884 17.5226 7.30503 16.7363 7.94629L16.584 8.08398L10.0859 14.5879C9.34884 15.3171 9.30503 16.4774 9.94629 17.2637L10.084 17.416L16.584 23.9033C17.3645 24.6902 18.63 24.6752 19.4082 23.9053C20.1942 23.1274 20.1914 21.8598 19.4102 21.0781L14.3262 15.9941L19.4092 10.9092C20.1959 10.1288 20.1818 8.86417 19.4121 8.08594Z" fill="#2E2E2E" stroke="black"/>
</svg>
