<svg width="32" height="32" viewBox="0 0 32 32" fill="none" xmlns="http://www.w3.org/2000/svg">
<path d="M0 16C0 20.2435 1.68571 24.3131 4.68629 27.3137C7.68687 30.3143 11.7565 32 16 32C20.2435 32 24.3131 30.3143 27.3137 27.3137C30.3143 24.3131 32 20.2435 32 16C32 11.7565 30.3143 7.68687 27.3137 4.68629C24.3131 1.68571 20.2435 0 16 0C11.7565 0 7.68687 1.68571 4.68629 4.68629C1.68571 7.68687 0 11.7565 0 16ZM15.0625 23.5625C14.475 24.15 13.525 24.15 12.9438 23.5625C12.3625 22.975 12.3563 22.025 12.9438 21.4438L18.3813 16.0063L12.9438 10.5688C12.3563 9.98125 12.3563 9.03125 12.9438 8.45C13.5312 7.86875 14.4813 7.8625 15.0625 8.45L21.5625 14.9375C22.15 15.525 22.15 16.475 21.5625 17.0562L15.0625 23.5625Z" fill="#2E2E2E"/>
</svg>
