<svg width="32" height="32" viewBox="0 0 32 32" fill="none" xmlns="http://www.w3.org/2000/svg">
<rect x="0.5" y="0.5" width="31" height="31" rx="15.5" stroke="white"/>
<path d="M22.3553 12.7405C22.3655 12.8826 22.3655 13.0248 22.3655 13.1669C22.3655 17.5019 19.066 22.4969 13.0355 22.4969C11.1777 22.4969 9.45178 21.9588 8 21.0248C8.26397 21.0552 8.51775 21.0654 8.79187 21.0654C10.3248 21.0654 11.736 20.5476 12.8629 19.6644C11.4213 19.6339 10.2132 18.6898 9.79694 17.3903C10 17.4207 10.203 17.441 10.4162 17.441C10.7107 17.441 11.0051 17.4004 11.2792 17.3294C9.77666 17.0248 8.64972 15.705 8.64972 14.1111V14.0705C9.08625 14.3141 9.59391 14.4664 10.1319 14.4867C9.24869 13.8979 8.67003 12.8928 8.67003 11.7557C8.67003 11.1466 8.83244 10.5882 9.11672 10.1009C10.7309 12.0908 13.1573 13.3902 15.8781 13.5324C15.8274 13.2887 15.7969 13.035 15.7969 12.7811C15.7969 10.974 17.2588 9.50195 19.0761 9.50195C20.0202 9.50195 20.873 9.89789 21.472 10.5375C22.2131 10.3954 22.9238 10.1212 23.5532 9.74561C23.3096 10.507 22.7918 11.1466 22.1116 11.5527C22.7715 11.4817 23.4111 11.2989 23.9999 11.0451C23.5533 11.6948 22.9949 12.2735 22.3553 12.7405Z" fill="white"/>
</svg>
