<svg width="32" height="32" viewBox="0 0 32 32" fill="none" xmlns="http://www.w3.org/2000/svg">
<rect x="0.5" y="0.5" width="31" height="31" rx="15.5" stroke="white"/>
<g clip-path="url(#clip0_1101_9596)">
<path d="M16.0036 12.0358C13.7321 12.0358 11.9 13.868 11.9 16.1394C11.9 18.4108 13.7321 20.243 16.0036 20.243C18.275 20.243 20.1071 18.4108 20.1071 16.1394C20.1071 13.868 18.275 12.0358 16.0036 12.0358ZM16.0036 18.8073C14.5357 18.8073 13.3357 17.6108 13.3357 16.1394C13.3357 14.668 14.5321 13.4715 16.0036 13.4715C17.475 13.4715 18.6714 14.668 18.6714 16.1394C18.6714 17.6108 17.4714 18.8073 16.0036 18.8073ZM21.2321 11.868C21.2321 12.4001 20.8036 12.8251 20.275 12.8251C19.7429 12.8251 19.3179 12.3965 19.3179 11.868C19.3179 11.3394 19.7464 10.9108 20.275 10.9108C20.8036 10.9108 21.2321 11.3394 21.2321 11.868ZM23.95 12.8394C23.8893 11.5573 23.5964 10.4215 22.6571 9.48583C21.7214 8.55011 20.5857 8.25725 19.3036 8.19297C17.9821 8.11797 14.0214 8.11797 12.7 8.19297C11.4214 8.25368 10.2857 8.54654 9.34642 9.48225C8.40714 10.418 8.11785 11.5537 8.05356 12.8358C7.97856 14.1573 7.97856 18.118 8.05356 19.4394C8.11428 20.7215 8.40714 21.8573 9.34642 22.793C10.2857 23.7287 11.4179 24.0215 12.7 24.0858C14.0214 24.1608 17.9821 24.1608 19.3036 24.0858C20.5857 24.0251 21.7214 23.7323 22.6571 22.793C23.5928 21.8573 23.8857 20.7215 23.95 19.4394C24.025 18.118 24.025 14.1608 23.95 12.8394ZM22.2428 20.8573C21.9643 21.5573 21.425 22.0965 20.7214 22.3787C19.6679 22.7965 17.1678 22.7001 16.0036 22.7001C14.8393 22.7001 12.3357 22.793 11.2857 22.3787C10.5857 22.1001 10.0464 21.5608 9.76428 20.8573C9.34642 19.8037 9.44285 17.3037 9.44285 16.1394C9.44285 14.9751 9.34999 12.4715 9.76428 11.4215C10.0429 10.7215 10.5821 10.1823 11.2857 9.90011C12.3393 9.48225 14.8393 9.57868 16.0036 9.57868C17.1678 9.57868 19.6714 9.48583 20.7214 9.90011C21.4214 10.1787 21.9607 10.718 22.2428 11.4215C22.6607 12.4751 22.5643 14.9751 22.5643 16.1394C22.5643 17.3037 22.6607 19.8073 22.2428 20.8573Z" fill="white"/>
</g>
<defs>
<clipPath id="clip0_1101_9596">
<rect width="16" height="18.2857" fill="white" transform="translate(8 7)"/>
</clipPath>
</defs>
</svg>
