<svg width="32" height="32" viewBox="0 0 32 32" fill="none" xmlns="http://www.w3.org/2000/svg">
<rect x="0.5" y="0.5" width="31" height="31" rx="15.5" stroke="white"/>
<path d="M11.5814 22.9996H8.26429V12.3175H11.5814V22.9996ZM9.92107 10.8604C8.86036 10.8604 8 9.98179 8 8.92107C8 8.41157 8.2024 7.92294 8.56267 7.56267C8.92294 7.2024 9.41157 7 9.92107 7C10.4306 7 10.9192 7.2024 11.2795 7.56267C11.6397 7.92294 11.8421 8.41157 11.8421 8.92107C11.8421 9.98179 10.9814 10.8604 9.92107 10.8604ZM23.9964 22.9996H20.6864V17.7996C20.6864 16.5604 20.6614 14.9711 18.9618 14.9711C17.2371 14.9711 16.9729 16.3175 16.9729 17.7104V22.9996H13.6593V12.3175H16.8407V13.7746H16.8871C17.33 12.9354 18.4118 12.0496 20.0257 12.0496C23.3829 12.0496 24 14.2604 24 17.1318V22.9996H23.9964Z" fill="white"/>
</svg>
