<svg width="51" height="44" viewBox="0 0 51 44" fill="none" xmlns="http://www.w3.org/2000/svg">
<path d="M15.0605 3.32813L14.0449 6.375H6.75C3.30273 6.375 0.5 9.17773 0.5 12.625V37.625C0.5 41.0723 3.30273 43.875 6.75 43.875H44.25C47.6973 43.875 50.5 41.0723 50.5 37.625V12.625C50.5 9.17773 47.6973 6.375 44.25 6.375H36.9551L35.9395 3.32813C35.3047 1.41406 33.5176 0.125 31.4961 0.125H19.5039C17.4824 0.125 15.6953 1.41406 15.0605 3.32813ZM25.5 15.75C27.9864 15.75 30.371 16.7377 32.1291 18.4959C33.8873 20.254 34.875 22.6386 34.875 25.125C34.875 27.6114 33.8873 29.996 32.1291 31.7541C30.371 33.5123 27.9864 34.5 25.5 34.5C23.0136 34.5 20.629 33.5123 18.8709 31.7541C17.1127 29.996 16.125 27.6114 16.125 25.125C16.125 22.6386 17.1127 20.254 18.8709 18.4959C20.629 16.7377 23.0136 15.75 25.5 15.75Z" fill="#323232"/>
</svg>
