<svg width="42" height="42" viewBox="0 0 42 42" fill="none" xmlns="http://www.w3.org/2000/svg">
<path fill-rule="evenodd" clip-rule="evenodd" d="M41.8333 24.433V14.7003C41.8333 12.0896 41.6962 9.84953 41.2802 7.97772C40.8589 6.08226 40.1245 4.43918 38.8429 3.15747C37.5612 1.87576 35.9181 1.14141 34.0225 0.720159C32.1508 0.304159 29.9106 0.166992 27.3 0.166992H14.7C12.0893 0.166992 9.84917 0.304159 7.97735 0.720159C6.0819 1.14141 4.43881 1.87576 3.15711 3.15747C1.8754 4.43918 1.14104 6.08226 0.719793 7.97772C0.303793 9.84953 0.166626 12.0896 0.166626 14.7003V27.3003C0.166626 29.9109 0.303793 32.1512 0.719793 34.0228C1.14104 35.9184 1.8754 37.5616 3.15711 38.8432C4.43881 40.1249 6.0819 40.8593 7.97735 41.2805C9.84917 41.6966 12.0893 41.8337 14.7 41.8337H27.3C29.9106 41.8337 32.1508 41.6966 34.0225 41.2805C35.9181 40.8593 37.5612 40.1249 38.8429 38.8432C40.1245 37.5616 40.8589 35.9184 41.2802 34.0228C41.6962 32.1512 41.8333 29.9109 41.8333 27.3003V24.5299C41.8341 24.4976 41.8341 24.4653 41.8333 24.433ZM4.78721 8.88168C4.47079 10.3054 4.33329 12.1847 4.33329 14.7003V19.117C5.83302 17.6749 7.22915 16.4951 8.5811 15.6348C10.2193 14.5923 11.9004 13.9498 13.713 13.9498C15.5256 13.9498 17.2066 14.5923 18.845 15.6348C20.4627 16.6642 22.1435 18.1512 23.9895 19.9972L27.3756 23.3832C29.4241 21.6945 31.4329 20.5285 33.595 20.2591C35.0191 20.0816 36.3623 20.3072 37.6666 20.8332V14.7003C37.6666 12.1847 37.5291 10.3054 37.2127 8.88168C36.9016 7.4816 36.4458 6.65297 35.8966 6.10374C35.3472 5.55453 34.5187 5.09874 33.1185 4.78757C31.695 4.47116 29.8156 4.33366 27.3 4.33366H14.7C12.1844 4.33366 10.3051 4.47116 8.88131 4.78757C7.48123 5.09874 6.6526 5.55453 6.10338 6.10374C5.55417 6.65297 5.09838 7.4816 4.78721 8.88168Z" fill="#323232"/>
</svg>
